<?xml version="1.0" encoding="utf-8"?>
<svg viewBox="0 0 512 512" width="512pt" height="512pt" xmlns="http://www.w3.org/2000/svg">
  <g transform="matrix(0.09662000089883803, 0, 0, -0.09662000089883803, 8.65157140272214, 503.3483961723505)" style="">
    <path d="M -38.828 5209.543 L -89.542 5158.829 L -89.542 2560 L -89.542 -38.828 L -38.828 -89.542 L 2548.616 -89.542 C 4422.96 -89.542 5158.853 -89.542 5158.853 -89.542 L 5209.567 -38.828 L 5209.543 5158.829 L 5158.829 5209.543 L 2560.001 5209.543 L -38.828 5209.543 Z" style="fill: rgb(255, 255, 255);"/>
  </g>
  <g transform="matrix(0.0948130041360855, 0, 0, -0.0948130041360855, 13.2787105631636, 498.7212903905106)" fill="#000000" stroke="none" style="">
    <path d="M 49 5120 L 0 5071 L 0 49 L 49 0 L 5073 11 L 5109 47 L 5120 5071 L 5071 5120 L 49 5120 Z M 4845 4960 L 3555 3670 L 3533 3722 C 3520 3750 3502 3779 3492 3786 C 3464 3808 3416 3803 3391 3776 C 3363 3746 3366 3706 3403 3609 L 3428 3543 C 3428 3543 2254 2375 2257 2391 C 2264 2429 2230 2461 2127 2515 C 2039 2560 2031 2563 2002 2551 C 1964 2535 1943 2489 1956 2452 C 1962 2435 1987 2412 2024 2390 C 2089 2352 2090 2353 1989 2326 C 1959 2317 1925 2301 1915 2290 C 1887 2259 1891 2211 1924 2183 C 1954 2158 1977 2155 2030 2170 C 2058 2178 572 694 566 700 C 560 706 539 710 518 710 C 466 710 444 683 430 601 L 419 533 L 289 404 L 160 275 L 160 4960 L 4845 4960 Z M 4957 4840 C 4959 4840 4960 160 4960 160 L 4840 160 L 4720 160 L 4720 194 C 4720 245 4687 280 4640 280 C 4593 280 4560 245 4560 194 L 4560 160 L 562 160 L 556 185 C 552 201 536 217 515 227 C 472 247 438 235 412 190 C 396 162 391 160 335 160 L 276 160 C 276 160 2384 2269 2408 2254 C 2427 2241 2456 2239 2552 2242 C 2669 2245 2672 2246 2696 2273 C 2726 2308 2727 2341 2698 2374 C 2679 2396 2663 2401 2602 2406 L 2528 2413 C 2528 2413 4956 4840 4957 4840 Z"/>
    <path d="M2300 4329 c-41 -10 -86 -27 -100 -38 -47 -34 -32 -123 23 -136 36 -10 219 41 240 66 41 50 -3 131 -71 128 -9 0 -51 -9 -92 -20z"/>
    <path d="M2659 4321 c-33 -33 -35 -50 -14 -91 11 -20 27 -32 53 -39 20 -5 69 -17 109 -27 68 -16 73 -17 98 0 38 25 51 58 35 96 -16 38 -29 45 -132 70 -108 26 -114 25 -149 -9z"/>
    <path d="M3113 4160 c-27 -11 -43 -40 -43 -78 0 -24 14 -42 78 -99 42 -38 85 -72 94 -76 24 -9 76 11 88 33 23 44 12 74 -52 136 -97 94 -116 104 -165 84z"/>
    <path d="M1863 4100 c-86 -73 -103 -107 -80 -155 17 -37 50 -52 90 -41 12 3 57 39 100 79 84 81 93 104 56 151 -15 20 -29 26 -58 26 -31 0 -49 -10 -108 -60z"/>
    <path d="M1621 3781 c-24 -24 -81 -172 -81 -211 0 -34 28 -66 66 -76 43 -11 75 22 111 117 37 100 41 141 13 169 -26 26 -83 27 -109 1z"/>
    <path d="M1525 3315 c-29 -28 -32 -68 -14 -174 16 -94 56 -131 117 -110 50 17 56 43 41 161 -11 82 -18 108 -36 126 -30 30 -77 29 -108 -3z"/>
    <path d="M1655 2865 c-34 -33 -31 -61 13 -132 64 -103 95 -133 142 -133 30 0 70 44 70 76 0 28 -84 163 -122 197 -29 25 -74 22 -103 -8z"/>
    <path d="M1573 2165 c-101 -53 -123 -74 -123 -120 0 -37 37 -75 72 -75 29 0 195 87 212 112 23 32 20 71 -6 95 -42 38 -60 37 -155 -12z"/>
    <path d="M1224 1934 c-17 -8 -61 -43 -97 -77 -56 -52 -67 -68 -67 -95 0 -42 38 -82 78 -82 22 0 50 18 109 69 44 39 83 77 87 86 12 32 6 62 -16 82 -33 30 -59 34 -94 17z"/>
    <path d="M874 1586 c-22 -15 -116 -148 -127 -179 -8 -22 8 -66 31 -83 21 -16 57 -18 82 -4 31 17 140 175 140 205 0 57 -77 95 -126 61z"/>
    <path d="M621 1173 c-26 -23 -91 -175 -91 -215 0 -63 49 -97 107 -73 24 10 36 28 63 91 18 44 37 92 42 107 26 72 -63 138 -121 90z"/>
    <path d="M3484 3318 c-16 -18 -24 -47 -33 -127 -12 -98 -11 -106 7 -130 15 -21 28 -26 62 -26 62 0 78 26 92 148 11 92 11 99 -9 125 -28 38 -90 43 -119 10z"/>
    <path d="M3368 2880 c-9 -6 -27 -27 -39 -48 -13 -20 -38 -57 -56 -81 -40 -53 -43 -92 -8 -126 49 -50 97 -28 171 80 59 86 66 117 33 159 -22 28 -68 35 -101 16z"/>
    <path d="M2979 2507 c-108 -60 -111 -63 -108 -116 1 -25 -3 -58 -9 -73 -13 -31 -4 -66 22 -87 25 -21 214 -61 240 -51 33 12 50 38 50 75 0 45 -17 62 -80 81 -30 8 -54 17 -54 20 0 2 18 13 40 24 59 30 80 55 80 93 0 42 -35 77 -76 77 -16 0 -63 -20 -105 -43z"/>
    <path d="M3341 2194 c-47 -60 -21 -99 105 -160 94 -45 118 -49 153 -21 23 19 31 54 19 87 -8 25 -27 39 -99 75 -105 53 -148 58 -178 19z"/>
    <path d="M3772 1973 c-21 -8 -43 -61 -36 -88 7 -28 144 -148 188 -164 48 -19 97 14 98 67 1 42 -10 57 -98 128 -77 63 -109 75 -152 57z"/>
    <path d="M4115 1615 c-39 -38 -33 -71 31 -156 67 -89 89 -109 121 -109 29 0 83 50 83 78 0 22 -65 121 -114 175 -41 45 -84 50 -121 12z"/>
    <path d="M4380 1202 c-16 -17 -30 -38 -30 -47 0 -30 83 -206 104 -221 11 -8 31 -14 44 -14 26 0 82 50 82 74 0 21 -76 196 -92 213 -7 7 -28 15 -45 19 -27 5 -37 1 -63 -24z"/>
    <path d="M4535 745 c-29 -28 -30 -40 -6 -164 24 -122 55 -152 125 -120 39 18 49 54 36 135 -17 106 -29 142 -53 159 -32 22 -74 19 -102 -10z"/>
  </g>
</svg>